<svg xmlns="http://www.w3.org/2000/svg" viewBox="0 0 64 64">
  <defs>
    <linearGradient id="pst-g" x1="0" y1="0" x2="1" y2="1">
      <stop offset="0" stop-color="#22c55e" />
      <stop offset="0.5" stop-color="#38bdf8" />
      <stop offset="1" stop-color="#a78bfa" />
    </linearGradient>
  </defs>
  <circle cx="32" cy="32" r="26" fill="url(#pst-g)" />
  <path
    d="M26.8 25.2c-2.5-3.2-7.2-3-9.1.4-1.4 2.4-.7 5.5 1.6 7.1 2 1.4 4.6 1.3 6.5-.2 1.4-1.2 2.2-3 1-4.8Zm19.5.4c-1.9-3.4-6.6-3.6-9.1-.4-1.2 1.8-.4 3.6 1 4.8 1.9 1.5 4.5 1.6 6.5.2 2.3-1.6 3-4.7 1.6-7.1ZM24 37.2c0-4.2 3.6-7.6 8-7.6s8 3.4 8 7.6c0 6.2-6.1 10.8-8 11.8-1.9-1-8-5.6-8-11.8Z"
    fill="rgba(2,6,23,0.92)"
  />
</svg>