<svg xmlns="http://www.w3.org/2000/svg" width="1200" height="630" viewBox="0 0 1200 630">
  <defs>
    <linearGradient id="bg" x1="0" y1="0" x2="1" y2="1">
      <stop offset="0" stop-color="#020617" />
      <stop offset="1" stop-color="#0b1220" />
    </linearGradient>
    <radialGradient id="glow1" cx="25%" cy="20%" r="60%">
      <stop offset="0" stop-color="#38bdf8" stop-opacity="0.28" />
      <stop offset="1" stop-color="#38bdf8" stop-opacity="0" />
    </radialGradient>
    <radialGradient id="glow2" cx="80%" cy="15%" r="60%">
      <stop offset="0" stop-color="#a78bfa" stop-opacity="0.22" />
      <stop offset="1" stop-color="#a78bfa" stop-opacity="0" />
    </radialGradient>
    <radialGradient id="glow3" cx="55%" cy="65%" r="60%">
      <stop offset="0" stop-color="#22c55e" stop-opacity="0.18" />
      <stop offset="1" stop-color="#22c55e" stop-opacity="0" />
    </radialGradient>
    <linearGradient id="mark" x1="0" y1="0" x2="1" y2="1">
      <stop offset="0" stop-color="#22c55e" />
      <stop offset="0.5" stop-color="#38bdf8" />
      <stop offset="1" stop-color="#a78bfa" />
    </linearGradient>
  </defs>

  <rect width="1200" height="630" fill="url(#bg)" />
  <rect width="1200" height="630" fill="url(#glow1)" />
  <rect width="1200" height="630" fill="url(#glow2)" />
  <rect width="1200" height="630" fill="url(#glow3)" />

  <g transform="translate(96 126)">
    <circle cx="72" cy="72" r="64" fill="url(#mark)" />
    <path
      d="M62.4 56.7c-3.2-4.1-9.3-3.8-11.7.5-1.8 3.1-.9 7 2.1 9.1 2.6 1.8 6 1.7 8.3-.3 1.8-1.5 2.8-3.8 1.3-6.2Zm25.2.5c-2.4-4.4-8.5-4.7-11.7-.5-1.5 2.4-.5 4.7 1.3 6.2 2.3 1.9 5.7 2.1 8.3.3 3-2.1 3.9-6 2.1-9.1ZM58 75.4c0-5.5 4.7-9.9 10-9.9s10 4.4 10 9.9c0 8.1-7.6 14.1-10 15.4-2.4-1.3-10-7.3-10-15.4Z"
      fill="rgba(2,6,23,0.92)"
    />
  </g>

  <g transform="translate(96 320)">
    <text x="0" y="0" font-family="Segoe UI, system-ui, -apple-system, Arial" font-size="64" font-weight="800" fill="#ffffff">
      Pet Safety Training
    </text>
    <text x="0" y="66" font-family="Segoe UI, system-ui, -apple-system, Arial" font-size="30" font-weight="600" fill="rgba(226,232,240,0.78)">
      Safer pets. Better homes.
    </text>
    <text x="0" y="118" font-family="Segoe UI, system-ui, -apple-system, Arial" font-size="24" font-weight="500" fill="rgba(148,163,184,0.85)">
      Training · Adoption · Education
    </text>
  </g>
</svg>

